<?xml version="1.0" encoding="UTF-8" standalone="no"?>
<!-- Created with Inkscape (http://www.inkscape.org/) -->

<svg
   xmlns:dc="http://purl.org/dc/elements/1.1/"
   xmlns:cc="http://creativecommons.org/ns#"
   xmlns:rdf="http://www.w3.org/1999/02/22-rdf-syntax-ns#"
   xmlns:svg="http://www.w3.org/2000/svg"
   xmlns="http://www.w3.org/2000/svg"
   xmlns:sodipodi="http://sodipodi.sourceforge.net/DTD/sodipodi-0.dtd"
   xmlns:inkscape="http://www.inkscape.org/namespaces/inkscape"
   width="565.255mm"
   height="153.73958mm"
   viewBox="0 0 565.255 153.73958"
   version="1.1"
   id="svg4636"
   inkscape:version="0.92.2 5c3e80d, 2017-08-06"
   sodipodi:docname="DadlanLogo-Vector.svg"
   inkscape:export-filename="Z:\DadLAN\DadlanLogo-BW-Final.png"
   inkscape:export-xdpi="96"
   inkscape:export-ydpi="96">
  <defs
     id="defs4630">
    <inkscape:path-effect
       effect="spiro"
       id="path-effect4788-4-7"
       is_visible="true" />
    <inkscape:path-effect
       effect="spiro"
       id="path-effect4788-3"
       is_visible="true" />
  </defs>
  <sodipodi:namedview
     id="base"
     pagecolor="#ffffff"
     bordercolor="#666666"
     borderopacity="1.0"
     inkscape:pageopacity="0.0"
     inkscape:pageshadow="2"
     inkscape:zoom="0.35"
     inkscape:cx="-564.22402"
     inkscape:cy="199.28724"
     inkscape:document-units="mm"
     inkscape:current-layer="layer2"
     showgrid="true"
     inkscape:window-width="3440"
     inkscape:window-height="1395"
     inkscape:window-x="0"
     inkscape:window-y="1"
     inkscape:window-maximized="1"
     showguides="false"
     showborder="false">
    <inkscape:grid
       type="xygrid"
       id="grid5266"
       originx="171.51601"
       originy="-94.100236" />
  </sodipodi:namedview>
  <metadata
     id="metadata4633">
    <rdf:RDF>
      <cc:Work
         rdf:about="">
        <dc:format>image/svg+xml</dc:format>
        <dc:type
           rdf:resource="http://purl.org/dc/dcmitype/StillImage" />
        <dc:title />
      </cc:Work>
    </rdf:RDF>
  </metadata>
  <g
     inkscape:groupmode="layer"
     id="layer2"
     inkscape:label="Layer 2"
     style="display:inline"
     transform="translate(171.51602,-49.160176)">
    <ellipse
       style="fill:#000000;fill-opacity:1;stroke:#000000;stroke-width:4.60475779;stroke-linecap:square;stroke-linejoin:miter;stroke-miterlimit:4;stroke-dasharray:none;stroke-opacity:1;paint-order:normal"
       id="path4755-0"
       cx="53.336815"
       cy="98.178619"
       rx="4.0611405"
       ry="4.0611591"
       inkscape:export-xdpi="96"
       inkscape:export-ydpi="96"
       inkscape:export-filename="Z:\DadLAN\bitmap.png" />
    <ellipse
       style="fill:#000000;fill-opacity:1;stroke:#000000;stroke-width:4.60475779;stroke-linecap:square;stroke-linejoin:miter;stroke-miterlimit:4;stroke-dasharray:none;stroke-opacity:1;paint-order:normal"
       id="path4755-4-1"
       cx="86.522789"
       cy="98.178619"
       rx="4.0611405"
       ry="4.0611591"
       inkscape:export-xdpi="96"
       inkscape:export-ydpi="96"
       inkscape:export-filename="Z:\DadLAN\bitmap.png" />
    <g
       id="g4548"
       style="fill:none"
       transform="matrix(18,0,0,18,-891.43558,-2185.1476)"
       inkscape:export-filename="Z:\DadLAN\bitmap.png"
       inkscape:export-xdpi="96"
       inkscape:export-ydpi="96">
      <path
         inkscape:export-ydpi="96"
         inkscape:export-xdpi="96"
         sodipodi:nodetypes="ccssscc"
         inkscape:connector-curvature="0"
         id="path4751-1"
         d="m 46.894717,126.21655 4.963615,-0.36099 c 0,0 9.024757,-0.31587 13.085896,0 0.411774,0.032 0.676855,0.62482 0.676857,1.03784 -2e-6,0.41302 -0.265083,1.00582 -0.676857,1.03785 -4.061141,0.31587 -13.085895,0 -13.085895,0 l -4.963616,-0.36099 z"
         style="fill:none;stroke:#000000;stroke-width:0.25581989;stroke-linecap:butt;stroke-linejoin:miter;stroke-miterlimit:4;stroke-dasharray:none;stroke-opacity:1" />
      <path
         inkscape:export-ydpi="96"
         inkscape:export-xdpi="96"
         sodipodi:nodetypes="czc"
         inkscape:connector-curvature="0"
         id="path4774-1"
         d="m 51.870144,125.89099 c 0,0 -0.23743,0.64838 -0.23743,1.00241 -10e-7,0.35403 0.243337,0.96698 0.243337,1.00832"
         style="fill:none;stroke:#000000;stroke-width:0.25581989;stroke-linecap:butt;stroke-linejoin:miter;stroke-miterlimit:4;stroke-dasharray:none;stroke-opacity:1" />
    </g>
    <path
       style="fill:none;stroke:#000000;stroke-width:3.06983829;stroke-linecap:butt;stroke-linejoin:miter;stroke-miterlimit:4;stroke-dasharray:none;stroke-dashoffset:0;stroke-opacity:1"
       d="m 290.50748,95.906853 c 18.70491,-0.09822 37.1506,-9.317948 48.45614,-24.2199 3.4444,-4.540095 6.33559,-9.647031 10.83647,-13.14252 4.28402,-3.327075 9.85601,-4.924618 15.25991,-4.455424 5.4039,0.469194 10.59168,2.982913 14.3691,6.875642 3.77743,3.892729 6.12752,9.123313 6.61318,14.525759 0.48565,5.402446 -0.88121,10.941512 -3.75305,15.543123 -2.94002,4.710852 -7.35097,8.370404 -12.17913,11.113517 -4.82817,2.74311 -10.08973,4.62806 -15.3605,6.37586 -5.27077,1.7478 -10.59652,3.37813 -15.65915,5.65972 -5.06263,2.28159 -9.8946,5.25603 -13.65718,9.34 -4.53487,4.92223 -7.3575,11.39271 -7.88054,18.06503 -0.52303,6.67232 1.25688,13.50359 4.96937,19.07233 3.71249,5.56874 9.33369,9.83914 15.69392,11.92262 6.36023,2.08348 13.41861,1.96662 19.70639,-0.32624"
       id="path4786-3"
       inkscape:connector-curvature="0"
       inkscape:path-effect="#path-effect4788-3"
       inkscape:original-d="m 290.50748,95.906853 c -28.42798,-4.06116 32.21237,-16.09848 48.45614,-24.2199 16.24371,-8.12142 8.12985,-7.72848 10.83647,-13.14252 2.70664,-5.41404 21.66026,21.6585 32.48914,32.4891 10.82892,10.830417 -37.90318,21.658497 -56.85596,32.489097 -18.95281,10.8306 21.66023,32.48838 32.48914,48.73374"
       sodipodi:nodetypes="csscsc"
       inkscape:export-xdpi="96"
       inkscape:export-ydpi="96"
       inkscape:export-filename="Z:\DadLAN\bitmap.png" />
    <path
       style="fill:none;stroke:#000000;stroke-width:3.06983829;stroke-linecap:butt;stroke-linejoin:miter;stroke-miterlimit:4;stroke-dasharray:none;stroke-dashoffset:0;stroke-opacity:1"
       d="m 288.06047,101.60277 c 20.72865,0.19811 41.32594,-9.628646 54.21391,-25.864917 2.31349,-2.914534 4.39072,-6.019793 6.86405,-8.799971 2.47333,-2.780178 5.4107,-5.263975 8.90764,-6.536029 2.78907,-1.014555 5.86397,-1.212774 8.76881,-0.604421 2.90484,0.608353 5.63262,2.016899 7.83801,4.002973 2.20538,1.986074 3.88641,4.542087 4.87515,7.340409 0.98873,2.798322 1.28711,5.832806 0.90312,8.775722 -0.74344,5.697692 -4.01299,10.864414 -8.29348,14.697659 -4.28049,3.833246 -9.52271,6.443165 -14.89985,8.468695 -10.75428,4.05106 -22.57055,6.08389 -31.77437,12.9654 -6.83638,5.11142 -11.74146,12.74519 -13.54973,21.08742 -1.80828,8.34223 -0.50435,17.32188 3.60196,24.80525 4.10631,7.48338 10.98003,13.40675 18.98786,16.36265 8.00783,2.9559 17.08158,2.91914 25.0652,-0.10153"
       id="path4786-7-6"
       inkscape:connector-curvature="0"
       inkscape:path-effect="#path-effect4788-4-7"
       inkscape:original-d="m 288.06047,101.60277 c -28.42796,-4.061157 41.80865,-13.630857 54.21391,-25.864917 12.93055,-12.75228 13.06508,-9.92196 15.77169,-15.336 2.70664,-5.41404 11.55616,8.684263 22.38509,19.514683 10.82889,10.8306 -36.01489,25.301334 -54.9677,36.131754 -18.95276,10.8306 23.27638,45.90843 34.10529,62.15379"
       sodipodi:nodetypes="csscsc"
       inkscape:export-xdpi="96"
       inkscape:export-ydpi="96"
       inkscape:export-filename="Z:\DadLAN\bitmap.png" />
    <rect
       style="fill:none;fill-opacity:1;stroke:#000000;stroke-width:4.60475779;stroke-linecap:square;stroke-linejoin:miter;stroke-miterlimit:4;stroke-dasharray:none;stroke-dashoffset:0;stroke-opacity:1;paint-order:normal"
       id="rect4846-6"
       width="121.83421"
       height="93.40625"
       x="-169.21364"
       y="51.462555"
       ry="8.1223049"
       rx="8.1222744"
       inkscape:export-xdpi="96"
       inkscape:export-ydpi="96"
       inkscape:export-filename="Z:\DadLAN\bitmap.png" />
    <path
       inkscape:connector-curvature="0"
       id="path5335-88-5"
       d="m -135.10012,71.749752 69.851606,10e-7"
       style="font-style:normal;font-weight:normal;font-size:medium;line-height:1.25;font-family:sans-serif;letter-spacing:0px;word-spacing:0px;fill:none;fill-opacity:1;stroke:#000000;stroke-width:14.234;stroke-linecap:round;stroke-linejoin:miter;stroke-miterlimit:4;stroke-dasharray:none;stroke-opacity:1"
       inkscape:export-xdpi="96"
       inkscape:export-ydpi="96" />
    <path
       inkscape:connector-curvature="0"
       id="path5335-9-9-2"
       d="m -135.10008,124.58163 69.851609,10e-6"
       style="font-style:normal;font-weight:normal;font-size:192px;line-height:1.25;font-family:sans-serif;letter-spacing:0px;word-spacing:0px;fill:none;fill-opacity:1;stroke:#000000;stroke-width:14.23425579;stroke-linecap:round;stroke-linejoin:miter;stroke-miterlimit:4;stroke-dasharray:none;stroke-opacity:1"
       inkscape:export-xdpi="96"
       inkscape:export-ydpi="96" />
    <path
       inkscape:connector-curvature="0"
       id="path5335-3-3-1"
       d="m -135.10009,98.165688 69.85161,3e-6"
       style="font-style:normal;font-weight:normal;font-size:192px;line-height:1.25;font-family:sans-serif;letter-spacing:0px;word-spacing:0px;fill:none;fill-opacity:1;stroke:#000000;stroke-width:14.23425579;stroke-linecap:round;stroke-linejoin:miter;stroke-miterlimit:4;stroke-dasharray:none;stroke-opacity:1"
       inkscape:export-xdpi="96"
       inkscape:export-ydpi="96" />
    <path
       inkscape:connector-curvature="0"
       style="fill:none;stroke:#000000;stroke-width:2.02082849;stroke-linejoin:miter;stroke-miterlimit:4;stroke-dasharray:none;stroke-opacity:1"
       d="m 388.26461,160.64379 -3.45749,0.992 -1.66675,-4.27628 -28.3982,8.14773 7.46722,19.15802 28.39822,-8.14776 -1.66997,-4.28446 3.45749,-0.992 z"
       id="rect8119-3-6" />
    <path
       style="fill:none;stroke:#000000;stroke-width:2.02082849;stroke-linecap:butt;stroke-linejoin:miter;stroke-miterlimit:4;stroke-dasharray:none;stroke-opacity:1"
       d="m 384.80718,161.63577 -10.02256,2.87558 1.23988,3.18122 -11.04706,3.16954 1.65367,4.24267 11.04713,-3.16954 1.2051,3.09185 10.0543,-2.79405"
       id="path8144-1-1"
       inkscape:connector-curvature="0" />
    <g
       aria-label="dadlan"
       style="font-style:normal;font-weight:normal;font-size:105.83333588px;line-height:1.25;font-family:sans-serif;letter-spacing:0px;word-spacing:0px;fill:#000000;fill-opacity:1;stroke:none;stroke-width:0.26458332"
       id="text3832">
      <path
         sodipodi:type="inkscape:offset"
         inkscape:radius="0"
         inkscape:original="M -38.421875 128.67383 L -38.421875 142.83398 L -30.929688 142.83398 L -30.929688 156.42383 C -32.721137 155.63145 -34.598795 155.02865 -36.5625 154.61523 C -38.526205 154.16737 -40.627876 153.94336 -42.867188 153.94336 C -46.9324 153.94336 -50.669433 154.66829 -54.080078 156.11523 C -57.456272 157.56217 -60.368436 159.54172 -62.814453 162.05664 C -65.22602 164.57156 -67.120009 167.53467 -68.498047 170.94531 C -69.841634 174.32151 -70.513672 177.97298 -70.513672 181.90039 C -70.513672 185.8278 -69.825304 189.51388 -68.447266 192.95898 C -67.069227 196.36962 -65.156955 199.35102 -62.710938 201.90039 C -60.230468 204.44976 -57.283692 206.46393 -53.873047 207.94531 C -50.427952 209.39225 -46.656305 210.11719 -42.556641 210.11719 C -40.558485 210.11719 -38.595269 209.84028 -36.666016 209.28906 C -34.702311 208.73785 -32.790039 207.98025 -30.929688 207.01562 L -30.929688 209.08203 L -4.5742188 209.08203 L -4.5742188 194.92383 L -15.013672 194.92383 L -15.013672 128.67383 L -38.421875 128.67383 z M 100.07031 128.67383 L 100.07031 142.83398 L 107.5625 142.83398 L 107.5625 156.42383 C 105.77105 155.63145 103.89339 155.02865 101.92969 154.61523 C 99.965982 154.16737 97.864312 153.94336 95.625 153.94336 C 91.559787 153.94336 87.822754 154.66829 84.412109 156.11523 C 81.035916 157.56217 78.125705 159.54172 75.679688 162.05664 C 73.268121 164.57156 71.372179 167.53467 69.994141 170.94531 C 68.650553 174.32151 67.978516 177.97298 67.978516 181.90039 C 67.978516 185.8278 68.668837 189.51388 70.046875 192.95898 C 71.424913 196.36962 73.335232 199.35102 75.78125 201.90039 C 78.261719 204.44976 81.208496 206.46393 84.619141 207.94531 C 88.064237 209.39225 91.835884 210.11719 95.935547 210.11719 C 97.933702 210.11719 99.896915 209.84028 101.82617 209.28906 C 103.78987 208.73785 105.70215 207.98025 107.5625 207.01562 L 107.5625 209.08203 L 133.91797 209.08203 L 133.91797 194.92383 L 123.48047 194.92383 L 123.48047 128.67383 L 100.07031 128.67383 z M 139.6543 128.67383 L 139.6543 142.83398 L 147.92188 142.83398 L 147.92188 194.92383 L 139.6543 194.92383 L 139.6543 209.08203 L 172.05469 209.08203 L 172.05469 194.92383 L 163.78711 194.92383 L 163.78711 128.67383 L 139.6543 128.67383 z M 27.207031 154.35742 C 22.900661 154.35742 18.817491 154.99484 14.958984 156.26953 C 11.134928 157.54422 7.4651693 159.38726 3.9511719 161.79883 L 8.9121094 171.82422 C 11.185873 170.61843 13.54617 169.70606 15.992188 169.08594 C 18.472656 168.43137 21.331922 168.10352 24.570312 168.10352 C 26.120605 168.10352 27.550239 168.2583 28.859375 168.56836 C 30.168512 168.84397 31.288574 169.30832 32.21875 169.96289 C 33.148925 170.58301 33.871907 171.3935 34.388672 172.39258 C 34.905436 173.3572 35.164063 174.51188 35.164062 175.85547 L 35.164062 177.50781 C 33.441515 177.12885 31.563857 176.81928 29.53125 176.57812 C 27.533095 176.30252 25.311252 176.16406 22.865234 176.16406 C 19.523492 176.16406 16.544054 176.59576 13.925781 177.45703 C 11.34196 178.28385 9.1547312 179.45486 7.3632812 180.9707 C 5.5718316 182.4521 4.1931424 184.2442 3.2285156 186.3457 C 2.2983398 188.44722 1.8339844 190.73828 1.8339844 193.21875 C 1.8339844 195.66477 2.2983398 197.93756 3.2285156 200.03906 C 4.1586914 202.10612 5.4844835 203.91455 7.2070312 205.46484 C 8.96403 206.98069 11.100314 208.18631 13.615234 209.08203 C 16.164605 209.94331 19.042155 210.375 22.246094 210.375 C 23.520779 210.375 24.691786 210.28945 25.759766 210.11719 C 26.827746 209.97939 27.860298 209.73709 28.859375 209.39258 C 29.858453 209.08252 30.858344 208.6691 31.857422 208.15234 C 32.856499 207.60113 33.958279 206.94738 35.164062 206.18945 L 35.164062 209.08203 L 57.488281 209.08203 L 57.488281 194.92383 L 50.306641 194.92383 L 50.306641 175.44141 C 50.306641 171.5829 49.72016 168.31023 48.548828 165.62305 C 47.411946 162.93587 45.827528 160.76497 43.794922 159.11133 C 41.762315 157.42323 39.316461 156.21761 36.457031 155.49414 C 33.632053 154.73622 30.548774 154.35742 27.207031 154.35742 z M 206.00586 154.35742 C 201.69949 154.35742 197.61827 154.99484 193.75977 156.26953 C 189.93571 157.54422 186.26595 159.38726 182.75195 161.79883 L 187.71289 171.82422 C 189.98665 170.61843 192.34695 169.70606 194.79297 169.08594 C 197.27344 168.43137 200.1327 168.10352 203.37109 168.10352 C 204.92139 168.10352 206.35102 168.2583 207.66016 168.56836 C 208.9693 168.84397 210.08936 169.30832 211.01953 169.96289 C 211.94971 170.58301 212.67269 171.3935 213.18945 172.39258 C 213.70622 173.3572 213.96484 174.51188 213.96484 175.85547 L 213.96484 177.50781 C 212.2423 177.12885 210.36464 176.81928 208.33203 176.57812 C 206.33387 176.30252 204.11203 176.16406 201.66602 176.16406 C 198.32427 176.16406 195.34484 176.59576 192.72656 177.45703 C 190.14274 178.28385 187.95356 179.45486 186.16211 180.9707 C 184.37066 182.4521 182.99392 184.2442 182.0293 186.3457 C 181.09912 188.44722 180.63281 190.73828 180.63281 193.21875 C 180.63281 195.66477 181.09912 197.93756 182.0293 200.03906 C 182.95948 202.10612 184.28527 203.91455 186.00781 205.46484 C 187.76481 206.98069 189.9011 208.18631 192.41602 209.08203 C 194.96538 209.94331 197.84098 210.375 201.04492 210.375 C 202.31961 210.375 203.49257 210.28945 204.56055 210.11719 C 205.62853 209.97939 206.66108 209.73709 207.66016 209.39258 C 208.65924 209.08252 209.65912 208.6691 210.6582 208.15234 C 211.65728 207.60113 212.75906 206.94738 213.96484 206.18945 L 213.96484 209.08203 L 236.28906 209.08203 L 236.28906 194.92383 L 229.10547 194.92383 L 229.10547 175.44141 C 229.10547 171.5829 228.52094 168.31023 227.34961 165.62305 C 226.21273 162.93587 224.62831 160.76497 222.5957 159.11133 C 220.5631 157.42323 218.11724 156.21761 215.25781 155.49414 C 212.43283 154.73622 209.3476 154.35742 206.00586 154.35742 z M 287.96484 154.56445 C 284.89871 154.56445 281.97021 155.08171 279.17969 156.11523 C 276.42361 157.11431 273.92681 158.49105 271.6875 160.24805 L 271.6875 155.54688 L 247.29688 155.54688 L 247.29688 169.70508 L 255.04688 169.70508 L 255.04688 194.92383 L 247.19336 194.92383 L 247.19336 209.08203 L 280.47266 209.08203 L 280.47266 194.92383 L 271.79102 194.92383 L 271.79102 174.30469 C 273.51356 172.13428 275.28738 170.6537 277.11328 169.86133 C 278.93918 169.06895 280.74762 168.67188 282.53906 168.67188 C 285.15734 168.67188 287.259 169.53331 288.84375 171.25586 C 290.4285 172.94396 291.2207 175.28597 291.2207 178.2832 L 291.2207 209.08203 L 315.66406 209.08203 L 315.66406 194.92383 L 308.06836 194.92383 L 308.06836 175.75195 C 308.06836 168.82731 306.3272 163.57313 302.84766 159.99023 C 299.36811 156.37289 294.40717 154.56445 287.96484 154.56445 z M -41.677734 168.25781 C -39.541775 168.22337 -37.527615 168.72429 -35.632812 169.75781 C -33.703559 170.75689 -32.135471 172.16823 -30.929688 173.99414 L -30.929688 189.75586 C -32.135471 191.54731 -33.668945 192.99327 -35.529297 194.0957 C -37.355197 195.19813 -39.403971 195.78461 -41.677734 195.85352 C -43.469184 195.78461 -45.157444 195.44043 -46.742188 194.82031 C -48.29248 194.20019 -49.67117 193.30415 -50.876953 192.13281 C -52.048286 190.92703 -52.978949 189.48107 -53.667969 187.79297 C -54.356987 186.07042 -54.701172 184.15815 -54.701172 182.05664 C -54.701172 179.92068 -54.356987 178.00841 -53.667969 176.32031 C -52.978949 174.63221 -52.048286 173.1843 -50.876953 171.97852 C -49.67117 170.77274 -48.29248 169.84402 -46.742188 169.18945 C -45.157444 168.53487 -43.469184 168.22335 -41.677734 168.25781 z M 96.814453 168.25781 C 98.950412 168.22337 100.96653 168.72429 102.86133 169.75781 C 104.79058 170.75689 106.35671 172.16823 107.5625 173.99414 L 107.5625 189.75586 C 106.35671 191.54731 104.82519 192.99327 102.96484 194.0957 C 101.13894 195.19813 99.088218 195.78461 96.814453 195.85352 C 95.023003 195.78461 93.334744 195.44043 91.75 194.82031 C 90.199707 194.20019 88.821018 193.30415 87.615234 192.13281 C 86.443902 190.92703 85.515191 189.48107 84.826172 187.79297 C 84.137153 186.07042 83.792969 184.15815 83.792969 182.05664 C 83.792969 179.92068 84.137153 178.00841 84.826172 176.32031 C 85.515191 174.63221 86.443902 173.1843 87.615234 171.97852 C 88.821018 170.77274 90.199707 169.84402 91.75 169.18945 C 93.334744 168.53487 95.023003 168.22335 96.814453 168.25781 z M 22.761719 187.27539 L 35.164062 187.27539 L 35.164062 194.0957 C 33.751574 195.23258 32.046984 196.19786 30.048828 196.99023 C 28.050673 197.78261 25.82883 198.17969 23.382812 198.17969 C 21.040147 198.17969 19.282661 197.64415 18.111328 196.57617 C 16.974447 195.50819 16.40625 194.1824 16.40625 192.59766 C 16.40625 191.73638 16.577366 190.97879 16.921875 190.32422 C 17.300836 189.66965 17.783475 189.11779 18.369141 188.66992 C 18.989258 188.22206 19.679579 187.87788 20.4375 187.63672 C 21.195421 187.39557 21.969347 187.27539 22.761719 187.27539 z M 201.5625 187.27539 L 213.96484 187.27539 L 213.96484 194.0957 C 212.55235 195.23258 210.84776 196.19786 208.84961 196.99023 C 206.85146 197.78261 204.62961 198.17969 202.18359 198.17969 C 199.84093 198.17969 198.08344 197.64415 196.91211 196.57617 C 195.77522 195.50819 195.20703 194.1824 195.20703 192.59766 C 195.20703 191.73638 195.37814 190.97879 195.72266 190.32422 C 196.10162 189.66965 196.58426 189.11779 197.16992 188.66992 C 197.79004 188.22206 198.4784 187.87788 199.23633 187.63672 C 199.99425 187.39557 200.77013 187.27539 201.5625 187.27539 z "
         style="font-style:normal;font-variant:normal;font-weight:bold;font-stretch:normal;font-size:105.83333588px;font-family:Arvo;-inkscape-font-specification:'Arvo Bold';stroke-width:0.26458332"
         id="path4649"
         d="m -38.421875,128.67383 v 14.16015 h 7.492187 v 13.58985 c -1.791449,-0.79238 -3.669107,-1.39518 -5.632812,-1.8086 -1.963705,-0.44786 -4.065376,-0.67187 -6.304688,-0.67187 -4.065212,0 -7.802245,0.72493 -11.21289,2.17187 -3.376194,1.44694 -6.288358,3.42649 -8.734375,5.94141 -2.411567,2.51492 -4.305556,5.47803 -5.683594,8.88867 -1.343587,3.3762 -2.015625,7.02767 -2.015625,10.95508 0,3.92741 0.688368,7.61349 2.066406,11.05859 1.378039,3.41064 3.290311,6.39204 5.736328,8.94141 2.48047,2.54937 5.427246,4.56354 8.837891,6.04492 3.445095,1.44694 7.216742,2.17188 11.316406,2.17188 1.998156,0 3.961372,-0.27691 5.890625,-0.82813 1.963705,-0.55121 3.875977,-1.30881 5.736328,-2.27344 v 2.06641 h 26.3554692 v -14.1582 H -15.013672 v -66.25 z m 138.492185,0 v 14.16015 h 7.49219 v 13.58985 c -1.79145,-0.79238 -3.66911,-1.39518 -5.63281,-1.8086 -1.963708,-0.44786 -4.065378,-0.67187 -6.30469,-0.67187 -4.065213,0 -7.802246,0.72493 -11.212891,2.17187 -3.376193,1.44694 -6.286404,3.42649 -8.732421,5.94141 -2.411567,2.51492 -4.307509,5.47803 -5.685547,8.88867 -1.343588,3.3762 -2.015625,7.02767 -2.015625,10.95508 0,3.92741 0.690321,7.61349 2.068359,11.05859 1.378038,3.41064 3.288357,6.39204 5.734375,8.94141 2.480469,2.54937 5.427246,4.56354 8.837891,6.04492 3.445096,1.44694 7.216743,2.17188 11.316406,2.17188 1.998155,0 3.961368,-0.27691 5.890623,-0.82813 1.9637,-0.55121 3.87598,-1.30881 5.73633,-2.27344 v 2.06641 h 26.35547 v -14.1582 h -10.4375 v -66.25 z m 39.58399,0 v 14.16015 h 8.26758 v 52.08985 h -8.26758 v 14.1582 h 32.40039 v -14.1582 h -8.26758 v -66.25 z M 27.207031,154.35742 c -4.30637,0 -8.38954,0.63742 -12.248047,1.91211 -3.824056,1.27469 -7.4938147,3.11773 -11.0078121,5.5293 l 4.9609375,10.02539 c 2.2737636,-1.20579 4.6340606,-2.11816 7.0800786,-2.73828 2.480468,-0.65457 5.339734,-0.98242 8.578124,-0.98242 1.550293,0 2.979927,0.15478 4.289063,0.46484 1.309137,0.27561 2.429199,0.73996 3.359375,1.39453 0.930175,0.62012 1.653157,1.43061 2.169922,2.42969 0.516764,0.96462 0.775391,2.1193 0.77539,3.46289 v 1.65234 c -1.722547,-0.37896 -3.600205,-0.68853 -5.632812,-0.92969 -1.998155,-0.2756 -4.219998,-0.41406 -6.666016,-0.41406 -3.341742,0 -6.32118,0.4317 -8.939453,1.29297 -2.583821,0.82682 -4.7710498,1.99783 -6.5624998,3.51367 -1.7914496,1.4814 -3.1701388,3.2735 -4.1347656,5.375 -0.9301758,2.10152 -1.3945312,4.39258 -1.3945312,6.87305 0,2.44602 0.4643554,4.71881 1.3945312,6.82031 0.9301758,2.06706 2.2559679,3.87549 3.9785156,5.42578 1.7569988,1.51585 3.8932828,2.72147 6.4082028,3.61719 2.549371,0.86128 5.426921,1.29297 8.63086,1.29297 1.274685,0 2.445692,-0.0856 3.513672,-0.25781 1.06798,-0.1378 2.100532,-0.3801 3.099609,-0.72461 0.999078,-0.31006 1.998969,-0.72348 2.998047,-1.24024 0.999077,-0.55121 2.100857,-1.20496 3.30664,-1.96289 v 2.89258 h 22.324219 v -14.1582 h -7.18164 v -19.48242 c 0,-3.85851 -0.586481,-7.13118 -1.757813,-9.81836 -1.136882,-2.68718 -2.7213,-4.85808 -4.753906,-6.51172 -2.032607,-1.6881 -4.478461,-2.89372 -7.337891,-3.61719 -2.824978,-0.75792 -5.908257,-1.13672 -9.25,-1.13672 z m 178.798829,0 c -4.30637,0 -8.38759,0.63742 -12.24609,1.91211 -3.82406,1.27469 -7.49382,3.11773 -11.00782,5.5293 l 4.96094,10.02539 c 2.27376,-1.20579 4.63406,-2.11816 7.08008,-2.73828 2.48047,-0.65457 5.33973,-0.98242 8.57812,-0.98242 1.5503,0 2.97993,0.15478 4.28907,0.46484 1.30914,0.27561 2.4292,0.73996 3.35937,1.39453 0.93018,0.62012 1.65316,1.43061 2.16992,2.42969 0.51677,0.96462 0.77539,2.1193 0.77539,3.46289 v 1.65234 c -1.72254,-0.37896 -3.6002,-0.68853 -5.63281,-0.92969 -1.99816,-0.2756 -4.22,-0.41406 -6.66601,-0.41406 -3.34175,0 -6.32118,0.4317 -8.93946,1.29297 -2.58382,0.82682 -4.773,1.99783 -6.56445,3.51367 -1.79145,1.4814 -3.16819,3.2735 -4.13281,5.375 -0.93018,2.10152 -1.39649,4.39258 -1.39649,6.87305 0,2.44602 0.46631,4.71881 1.39649,6.82031 0.93018,2.06706 2.25597,3.87549 3.97851,5.42578 1.757,1.51585 3.89329,2.72147 6.40821,3.61719 2.54936,0.86128 5.42496,1.29297 8.6289,1.29297 1.27469,0 2.44765,-0.0856 3.51563,-0.25781 1.06798,-0.1378 2.10053,-0.3801 3.09961,-0.72461 0.99908,-0.31006 1.99896,-0.72348 2.99804,-1.24024 0.99908,-0.55121 2.10086,-1.20496 3.30664,-1.96289 v 2.89258 h 22.32422 v -14.1582 h -7.18359 v -19.48242 c 0,-3.85851 -0.58453,-7.13118 -1.75586,-9.81836 -1.13688,-2.68718 -2.7213,-4.85808 -4.75391,-6.51172 -2.0326,-1.6881 -4.47846,-2.89372 -7.33789,-3.61719 -2.82498,-0.75792 -5.91021,-1.13672 -9.25195,-1.13672 z m 81.95898,0.20703 c -3.06613,0 -5.99463,0.51726 -8.78515,1.55078 -2.75608,0.99908 -5.25288,2.37582 -7.49219,4.13282 v -4.70117 h -24.39062 v 14.1582 h 7.75 v 25.21875 h -7.85352 v 14.1582 h 33.2793 v -14.1582 h -8.68164 v -20.61914 c 1.72254,-2.17041 3.49636,-3.65099 5.32226,-4.44336 1.8259,-0.79238 3.63434,-1.18945 5.42578,-1.18945 2.61828,0 4.71994,0.86143 6.30469,2.58398 1.58475,1.6881 2.37695,4.03011 2.37695,7.02734 v 30.79883 h 24.44336 v -14.1582 h -7.5957 v -19.17188 c 0,-6.92464 -1.74116,-12.17882 -5.2207,-15.76172 -3.47955,-3.61734 -8.44049,-5.42578 -14.88282,-5.42578 z m -329.642574,13.69336 c 2.135959,-0.0344 4.150119,0.46648 6.044922,1.5 1.929253,0.99908 3.497341,2.41042 4.703124,4.23633 v 15.76172 c -1.205783,1.79145 -2.739257,3.23741 -4.599609,4.33984 -1.8259,1.10243 -3.874674,1.68891 -6.148437,1.75782 -1.79145,-0.0689 -3.47971,-0.41309 -5.064454,-1.03321 -1.550292,-0.62012 -2.928982,-1.51616 -4.134765,-2.6875 -1.171333,-1.20578 -2.101996,-2.65174 -2.791016,-4.33984 -0.689018,-1.72255 -1.033203,-3.63482 -1.033203,-5.73633 0,-2.13596 0.344185,-4.04823 1.033203,-5.73633 0.68902,-1.6881 1.619683,-3.13601 2.791016,-4.34179 1.205783,-1.20578 2.584473,-2.1345 4.134765,-2.78907 1.584744,-0.65458 3.273004,-0.9661 5.064454,-0.93164 z m 138.492187,0 c 2.135959,-0.0344 4.152077,0.46648 6.046877,1.5 1.92925,0.99908 3.49538,2.41042 4.70117,4.23633 v 15.76172 c -1.20579,1.79145 -2.73731,3.23741 -4.59766,4.33984 -1.8259,1.10243 -3.876622,1.68891 -6.150387,1.75782 -1.79145,-0.0689 -3.479709,-0.41309 -5.064453,-1.03321 -1.550293,-0.62012 -2.928982,-1.51616 -4.134766,-2.6875 -1.171332,-1.20578 -2.100043,-2.65174 -2.789062,-4.33984 -0.689019,-1.72255 -1.033203,-3.63482 -1.033203,-5.73633 0,-2.13596 0.344184,-4.04823 1.033203,-5.73633 0.689019,-1.6881 1.61773,-3.13601 2.789062,-4.34179 1.205784,-1.20578 2.584473,-2.1345 4.134766,-2.78907 1.584744,-0.65458 3.273003,-0.9661 5.064453,-0.93164 z m -74.052734,19.01758 h 12.402343 v 6.82031 c -1.412488,1.13688 -3.117078,2.10216 -5.115234,2.89453 -1.998155,0.79238 -4.219998,1.18946 -6.666016,1.18946 -2.342665,0 -4.100151,-0.53554 -5.271484,-1.60352 -1.136881,-1.06798 -1.705078,-2.39377 -1.705078,-3.97851 0,-0.86128 0.171116,-1.61887 0.515625,-2.27344 0.378961,-0.65457 0.8616,-1.20643 1.447266,-1.6543 0.620117,-0.44786 1.310438,-0.79204 2.068359,-1.0332 0.757921,-0.24115 1.531847,-0.36133 2.324219,-0.36133 z m 178.800781,0 h 12.40234 v 6.82031 c -1.41249,1.13688 -3.11708,2.10216 -5.11523,2.89453 -1.99815,0.79238 -4.22,1.18946 -6.66602,1.18946 -2.34266,0 -4.10015,-0.53554 -5.27148,-1.60352 -1.13689,-1.06798 -1.70508,-2.39377 -1.70508,-3.97851 0,-0.86128 0.17111,-1.61887 0.51563,-2.27344 0.37896,-0.65457 0.8616,-1.20643 1.44726,-1.6543 0.62012,-0.44786 1.30848,-0.79204 2.06641,-1.0332 0.75792,-0.24115 1.5338,-0.36133 2.32617,-0.36133 z" />
    </g>
  </g>
</svg>
