<svg
  version="1.1"
  viewBox="0 0 566 180"
  preserveAspectRatio="xMidYMid meet"
  xmlns="http://www.w3.org/2000/svg"
  xmlns:cc="http://creativecommons.org/ns#"
  xmlns:dc="http://purl.org/dc/elements/1.1/"
  xmlns:rdf="http://www.w3.org/1999/02/22-rdf-syntax-ns#">
  <metadata>
    <rdf:RDF>
      <cc:Work rdf:about="">
        <dc:format>image/svg+xml</dc:format>
        <dc:type rdf:resource="http://purl.org/dc/dcmitype/StillImage" />
        <dc:title/>
      </cc:Work>
    </rdf:RDF>
  </metadata>
  <g transform="translate(171.52 -49.16)">
    <ellipse cx="53.337" cy="98.179" rx="4.0611" ry="4.0612" stroke-linecap="square" stroke-width="4.6048" style="paint-order:normal" />
    <ellipse cx="86.523" cy="98.179" rx="4.0611" ry="4.0612" stroke-linecap="square" stroke-width="4.6048" style="paint-order:normal" />
    <g transform="matrix(18 0 0 18 -891.44 -2185.1)" fill="none" stroke-width=".25582">
      <path d="m46.895 126.22 4.9636-0.36099s9.0248-0.31587 13.086 0c0.41177 0.032 0.67686 0.62482 0.67686 1.0378-2e-6 0.41302-0.26508 1.0058-0.67686 1.0378-4.0611 0.31587-13.086 0-13.086 0l-4.9636-0.36099z" />
      <path d="m51.87 125.89s-0.23743 0.64838-0.23743 1.0024c-1e-6 0.35403 0.24334 0.96698 0.24334 1.0083" />
    </g>
    <path d="m290.51 95.907c18.705-0.09822 37.151-9.3179 48.456-24.22 3.4444-4.5401 6.3356-9.647 10.836-13.143 4.284-3.3271 9.856-4.9246 15.26-4.4554s10.592 2.9829 14.369 6.8756c3.7774 3.8927 6.1275 9.1233 6.6132 14.526 0.48565 5.4024-0.88121 10.942-3.753 15.543-2.94 4.7109-7.351 8.3704-12.179 11.114-4.8282 2.7431-10.09 4.6281-15.36 6.3759s-10.597 3.3781-15.659 5.6597-9.8946 5.256-13.657 9.34c-4.5349 4.9222-7.3575 11.393-7.8805 18.065-0.52303 6.6723 1.2569 13.504 4.9694 19.072s9.3337 9.8391 15.694 11.923 13.419 1.9666 19.706-0.32624" fill="none" stroke-width="3.0698" />
    <path d="m288.06 101.6c20.729 0.19811 41.326-9.6286 54.214-25.865 2.3135-2.9145 4.3907-6.0198 6.864-8.8s5.4107-5.264 8.9076-6.536c2.7891-1.0146 5.864-1.2128 8.7688-0.60442s5.6326 2.0169 7.838 4.003c2.2054 1.9861 3.8864 4.5421 4.8752 7.3404 0.98873 2.7983 1.2871 5.8328 0.90312 8.7757-0.74344 5.6977-4.013 10.864-8.2935 14.698-4.2805 3.8332-9.5227 6.4432-14.9 8.4687-10.754 4.0511-22.571 6.0839-31.774 12.965-6.8364 5.1114-11.741 12.745-13.55 21.087-1.8083 8.3422-0.50435 17.322 3.602 24.805 4.1063 7.4834 10.98 13.407 18.988 16.363s17.082 2.9191 25.065-0.10153" fill="none" stroke-width="3.0698" />
    <rect x="-169.21" y="51.463" width="121.83" height="93.406" rx="8.1223" ry="8.1223" fill="none" stroke-linecap="square" stroke-width="4.6048" style="paint-order:normal" />
    <path d="m-135.1 71.75 69.852 1e-6" fill="none" stroke-linecap="round" stroke-width="14.234" />
    <path d="m-135.1 124.58 69.852 1e-5" fill="none" stroke-linecap="round" stroke-width="14.234" />
    <path d="m-135.1 98.166 69.852 3e-6" fill="none" stroke-linecap="round" stroke-width="14.234" />
    <path d="m388.26 160.64-3.4575 0.992-1.6668-4.2763-28.398 8.1477 7.4672 19.158 28.398-8.1478-1.67-4.2845 3.4575-0.992z" fill="none" stroke-width="2.0208" />
    <path d="m384.81 161.64-10.023 2.8756 1.2399 3.1812-11.047 3.1695 1.6537 4.2427 11.047-3.1695 1.2051 3.0918 10.054-2.794" fill="none" stroke-width="2.0208" />
    <g aria-label="dadlan">
      <path d="m-38.422 128.67v14.16h7.4922v13.59c-1.7914-0.79238-3.6691-1.3952-5.6328-1.8086-1.9637-0.44786-4.0654-0.67187-6.3047-0.67187-4.0652 0-7.8022 0.72493-11.213 2.1719-3.3762 1.4469-6.2884 3.4265-8.7344 5.9414-2.4116 2.5149-4.3056 5.478-5.6836 8.8887-1.3436 3.3762-2.0156 7.0277-2.0156 10.955s0.68837 7.6135 2.0664 11.059c1.378 3.4106 3.2903 6.392 5.7363 8.9414 2.4805 2.5494 5.4272 4.5635 8.8379 6.0449 3.4451 1.4469 7.2167 2.1719 11.316 2.1719 1.9982 0 3.9614-0.27691 5.8906-0.82813 1.9637-0.55121 3.876-1.3088 5.7363-2.2734v2.0664h26.355v-14.158h-10.439v-66.25zm138.49 0v14.16h7.4922v13.59c-1.7914-0.79238-3.6691-1.3952-5.6328-1.8086-1.9637-0.44786-4.0654-0.67187-6.3047-0.67187-4.0652 0-7.8022 0.72493-11.213 2.1719-3.3762 1.4469-6.2864 3.4265-8.7324 5.9414-2.4116 2.5149-4.3075 5.478-5.6855 8.8887-1.3436 3.3762-2.0156 7.0277-2.0156 10.955s0.69032 7.6135 2.0684 11.059c1.378 3.4106 3.2884 6.392 5.7344 8.9414 2.4805 2.5494 5.4272 4.5635 8.8379 6.0449 3.4451 1.4469 7.2167 2.1719 11.316 2.1719 1.9982 0 3.9614-0.27691 5.8906-0.82813 1.9637-0.55121 3.876-1.3088 5.7363-2.2734v2.0664h26.355v-14.158h-10.438v-66.25zm39.584 0v14.16h8.2676v52.09h-8.2676v14.158h32.4v-14.158h-8.2676v-66.25zm-112.45 25.684c-4.3064 0-8.3895 0.63742-12.248 1.9121-3.8241 1.2747-7.4938 3.1177-11.008 5.5293l4.9609 10.025c2.2738-1.2058 4.6341-2.1182 7.0801-2.7383 2.4805-0.65457 5.3397-0.98242 8.5781-0.98242 1.5503 0 2.9799 0.15478 4.2891 0.46484 1.3091 0.27561 2.4292 0.73996 3.3594 1.3945 0.93018 0.62012 1.6532 1.4306 2.1699 2.4297 0.51676 0.96462 0.77539 2.1193 0.77539 3.4629v1.6523c-1.7225-0.37896-3.6002-0.68853-5.6328-0.92969-1.9982-0.2756-4.22-0.41406-6.666-0.41406-3.3417 0-6.3212 0.4317-8.9395 1.293-2.5838 0.82682-4.771 1.9978-6.5625 3.5137-1.7914 1.4814-3.1701 3.2735-4.1348 5.375-0.93018 2.1015-1.3945 4.3926-1.3945 6.873 0 2.446 0.46436 4.7188 1.3945 6.8203 0.93018 2.0671 2.256 3.8755 3.9785 5.4258 1.757 1.5158 3.8933 2.7215 6.4082 3.6172 2.5494 0.86128 5.4269 1.293 8.6309 1.293 1.2747 0 2.4457-0.0856 3.5137-0.25781 1.068-0.1378 2.1005-0.3801 3.0996-0.72461 0.99908-0.31006 1.999-0.72348 2.998-1.2402 0.99908-0.55121 2.1009-1.205 3.3066-1.9629v2.8926h22.324v-14.158h-7.1816v-19.482c0-3.8585-0.58648-7.1312-1.7578-9.8184-1.1369-2.6872-2.7213-4.8581-4.7539-6.5117-2.0326-1.6881-4.4785-2.8937-7.3379-3.6172-2.825-0.75792-5.9083-1.1367-9.25-1.1367zm178.8 0c-4.3064 0-8.3876 0.63742-12.246 1.9121-3.8241 1.2747-7.4938 3.1177-11.008 5.5293l4.9609 10.025c2.2738-1.2058 4.6341-2.1182 7.0801-2.7383 2.4805-0.65457 5.3397-0.98242 8.5781-0.98242 1.5503 0 2.9799 0.15478 4.2891 0.46484 1.3091 0.27561 2.4292 0.73996 3.3594 1.3945 0.93018 0.62012 1.6532 1.4306 2.1699 2.4297 0.51677 0.96462 0.77539 2.1193 0.77539 3.4629v1.6523c-1.7225-0.37896-3.6002-0.68853-5.6328-0.92969-1.9982-0.2756-4.22-0.41406-6.666-0.41406-3.3418 0-6.3212 0.4317-8.9395 1.293-2.5838 0.82682-4.773 1.9978-6.5644 3.5137-1.7914 1.4814-3.1682 3.2735-4.1328 5.375-0.93018 2.1015-1.3965 4.3926-1.3965 6.873 0 2.446 0.46631 4.7188 1.3965 6.8203 0.93018 2.0671 2.256 3.8755 3.9785 5.4258 1.757 1.5158 3.8933 2.7215 6.4082 3.6172 2.5494 0.86128 5.425 1.293 8.6289 1.293 1.2747 0 2.4476-0.0856 3.5156-0.25781 1.068-0.1378 2.1005-0.3801 3.0996-0.72461 0.99908-0.31006 1.999-0.72348 2.998-1.2402 0.99908-0.55121 2.1009-1.205 3.3066-1.9629v2.8926h22.324v-14.158h-7.1836v-19.482c0-3.8585-0.58453-7.1312-1.7559-9.8184-1.1369-2.6872-2.7213-4.8581-4.7539-6.5117-2.0326-1.6881-4.4785-2.8937-7.3379-3.6172-2.825-0.75792-5.9102-1.1367-9.252-1.1367zm81.959 0.20703c-3.0661 0-5.9946 0.51726-8.7852 1.5508-2.7561 0.99908-5.2529 2.3758-7.4922 4.1328v-4.7012h-24.391v14.158h7.75v25.219h-7.8535v14.158h33.279v-14.158h-8.6816v-20.619c1.7225-2.1704 3.4964-3.651 5.3223-4.4434 1.8259-0.79238 3.6343-1.1894 5.4258-1.1894 2.6183 0 4.7199 0.86143 6.3047 2.584 1.5848 1.6881 2.377 4.0301 2.377 7.0273v30.799h24.443v-14.158h-7.5957v-19.172c0-6.9246-1.7412-12.179-5.2207-15.762-3.4796-3.6173-8.4405-5.4258-14.883-5.4258zm-329.64 13.693c2.136-0.0344 4.1501 0.46648 6.0449 1.5 1.9293 0.99908 3.4973 2.4104 4.7031 4.2363v15.762c-1.2058 1.7914-2.7393 3.2374-4.5996 4.3398-1.8259 1.1024-3.8747 1.6889-6.1484 1.7578-1.7914-0.0689-3.4797-0.41309-5.0645-1.0332-1.5503-0.62012-2.929-1.5162-4.1348-2.6875-1.1713-1.2058-2.102-2.6517-2.791-4.3398-0.68902-1.7226-1.0332-3.6348-1.0332-5.7363 0-2.136 0.34418-4.0482 1.0332-5.7363 0.68902-1.6881 1.6197-3.136 2.791-4.3418 1.2058-1.2058 2.5845-2.1345 4.1348-2.7891 1.5847-0.65458 3.273-0.9661 5.0645-0.93164zm138.49 0c2.136-0.0344 4.1521 0.46648 6.0469 1.5 1.9292 0.99908 3.4954 2.4104 4.7012 4.2363v15.762c-1.2058 1.7914-2.7373 3.2374-4.5977 4.3398-1.8259 1.1024-3.8766 1.6889-6.1504 1.7578-1.7914-0.0689-3.4797-0.41309-5.0645-1.0332-1.5503-0.62012-2.929-1.5162-4.1348-2.6875-1.1713-1.2058-2.1-2.6517-2.7891-4.3398-0.68902-1.7226-1.0332-3.6348-1.0332-5.7363 0-2.136 0.34418-4.0482 1.0332-5.7363s1.6177-3.136 2.7891-4.3418c1.2058-1.2058 2.5845-2.1345 4.1348-2.7891 1.5847-0.65458 3.273-0.9661 5.0645-0.93164zm-74.053 19.018h12.402v6.8203c-1.4125 1.1369-3.1171 2.1022-5.1152 2.8945-1.9982 0.79238-4.22 1.1895-6.666 1.1895-2.3427 0-4.1002-0.53554-5.2715-1.6035-1.1369-1.068-1.7051-2.3938-1.7051-3.9785 0-0.86128 0.17112-1.6189 0.51562-2.2734 0.37896-0.65457 0.8616-1.2064 1.4473-1.6543 0.62012-0.44786 1.3104-0.79204 2.0684-1.0332 0.75792-0.24115 1.5318-0.36133 2.3242-0.36133zm178.8 0h12.402v6.8203c-1.4125 1.1369-3.1171 2.1022-5.1152 2.8945-1.9982 0.79238-4.22 1.1895-6.666 1.1895-2.3427 0-4.1002-0.53554-5.2715-1.6035-1.1369-1.068-1.7051-2.3938-1.7051-3.9785 0-0.86128 0.17111-1.6189 0.51563-2.2734 0.37896-0.65457 0.8616-1.2064 1.4473-1.6543 0.62012-0.44786 1.3085-0.79204 2.0664-1.0332 0.75792-0.24115 1.5338-0.36133 2.3262-0.36133z" stroke-width=".26458" />
    </g>
  </g>
</svg>
