<?xml version="1.0" standalone="no"?>
<!DOCTYPE svg PUBLIC "-//W3C//DTD SVG 20010904//EN"
 "http://www.w3.org/TR/2001/REC-SVG-20010904/DTD/svg10.dtd">
<svg version="1.0" xmlns="http://www.w3.org/2000/svg"
 width="400.000000pt" height="400.000000pt" viewBox="0 0 400.000000 400.000000"
 preserveAspectRatio="xMidYMid meet">
<metadata>
Created by potrace 1.14, written by Peter Selinger 2001-2017
</metadata>
<g transform="translate(0.000000,400.000000) scale(0.100000,-0.100000)"
fill="#000000" stroke="none">
<path d="M132 2607 c-22 -23 -22 -29 -22 -311 l0 -287 25 -24 24 -25 378 0
c281 1 382 4 394 13 30 23 39 56 39 136 0 67 3 81 16 81 8 0 91 -6 182 -14
397 -35 585 -41 1237 -41 363 0 686 4 718 8 67 10 111 42 120 87 5 25 11 30
35 30 55 0 242 79 242 102 0 4 6 8 14 8 7 0 21 12 31 26 36 56 143 154 167
154 34 0 87 -36 99 -68 13 -32 4 -98 -17 -130 -21 -33 -85 -69 -161 -93 -156
-48 -213 -89 -258 -183 -34 -71 -33 -137 1 -202 56 -106 119 -144 243 -144 68
0 81 -3 81 -16 0 -11 6 -15 18 -11 9 3 40 10 67 17 80 20 120 38 117 51 -2 7
2 15 9 19 15 10 -10 80 -31 88 -8 3 -17 9 -20 13 -6 9 -72 -6 -151 -33 -45
-16 -55 -23 -55 -41 2 -49 -120 -28 -179 31 -68 68 -73 181 -10 257 32 39 88
74 140 88 85 22 169 62 213 101 91 80 79 236 -21 285 -81 39 -163 22 -213 -45
-16 -22 -35 -43 -41 -47 -7 -4 -13 -15 -13 -22 0 -8 -3 -15 -8 -15 -4 0 -21
-13 -38 -28 -47 -43 -98 -70 -163 -87 -82 -21 -86 -20 -103 24 -9 21 -27 46
-41 55 -45 30 -287 39 -907 33 -568 -5 -801 -14 -1117 -42 -89 -8 -171 -15
-182 -15 -20 0 -21 6 -21 85 0 89 -15 137 -45 149 -9 3 -186 6 -394 6 l-378 0
-21 -23z m798 -36 c6 -12 10 -120 10 -282 0 -230 -2 -265 -17 -281 -15 -17
-40 -18 -384 -18 -321 0 -370 2 -383 16 -14 13 -16 54 -16 294 0 213 3 280 13
283 6 3 182 6 389 6 363 1 378 0 388 -18z m2873 -9 c44 -30 64 -55 71 -94 11
-61 -7 -112 -55 -157 -24 -22 -48 -41 -54 -41 -5 1 7 15 28 32 49 39 80 107
71 153 -9 48 -61 104 -99 106 -71 5 -85 -1 -128 -48 -137 -152 -182 -185 -303
-217 -70 -19 -84 -20 -84 -6 0 6 15 10 33 10 93 0 232 82 309 181 26 35 60 71
75 81 36 23 100 23 136 0z m-658 -161 c38 -8 75 -62 75 -111 0 -49 -37 -103
-75 -111 -39 -9 -1469 -11 -1529 -3 -53 8 -61 21 -61 114 0 86 9 108 48 113
54 6 1510 5 1542 -2z m-1621 -38 c-18 -51 -17 -103 2 -148 l15 -38 -58 7 c-32
4 -130 11 -218 16 -88 5 -190 12 -227 16 l-68 7 0 67 0 67 61 7 c34 3 96 6
138 7 42 0 132 6 201 13 188 20 170 22 154 -21z m2196 -113 c-8 -5 -19 -10
-25 -10 -5 0 -3 5 5 10 8 5 20 10 25 10 6 0 3 -5 -5 -10z m-100 -35 c-14 -8
-32 -14 -40 -14 -8 0 -1 7 15 14 39 18 57 18 25 0z m-74 -28 c-57 -35 -104
-89 -119 -138 -21 -64 -21 -78 0 -131 26 -67 51 -96 106 -125 40 -21 65 -27
111 -26 40 1 55 -2 48 -9 -16 -16 -112 -12 -154 6 -91 39 -156 150 -142 243
10 65 61 143 113 170 46 24 70 31 37 10z m319 -316 c-3 -5 -19 -12 -35 -16
-16 -4 -28 -12 -27 -18 1 -7 -13 -16 -31 -21 -26 -8 -31 -14 -26 -31 9 -27 6
-26 44 -15 22 6 38 6 46 -1 9 -7 19 -7 33 0 25 14 49 15 36 2 -13 -12 -157
-51 -167 -45 -7 5 -30 53 -41 86 -5 13 7 21 56 37 57 18 89 27 110 30 5 0 6
-3 2 -8z m45 -25 c0 -8 2 -21 5 -28 8 -19 -64 -46 -75 -28 -6 10 -15 10 -40 1
-40 -13 -40 -13 -40 -2 0 5 16 12 35 15 20 4 35 13 35 21 0 7 12 18 28 23 39
15 52 14 52 -2z"/>
<path d="M322 2508 c-16 -16 -15 -56 2 -74 12 -11 61 -14 264 -14 230 0 252 1
273 19 20 16 22 23 14 47 l-10 29 -266 3 c-197 2 -268 -1 -277 -10z"/>
<path d="M322 2328 c-16 -16 -15 -56 2 -74 12 -11 61 -14 264 -14 230 0 252 1
273 19 20 16 22 23 14 47 l-10 29 -266 3 c-197 2 -268 -1 -277 -10z"/>
<path d="M326 2154 c-20 -19 -21 -61 -2 -80 22 -22 502 -21 534 2 26 18 28 41
6 72 -15 22 -18 22 -269 22 -217 0 -256 -2 -269 -16z"/>
<path d="M1602 2328 c-7 -7 -12 -24 -12 -39 0 -44 72 -51 85 -8 14 43 -41 79
-73 47z"/>
<path d="M1823 2321 c-25 -40 10 -81 57 -66 23 7 28 53 8 73 -18 18 -52 14
-65 -7z"/>
<path d="M1030 2045 c0 -41 2 -45 25 -45 23 0 25 -4 25 -40 l0 -40 -74 0 c-74
0 -75 0 -121 -43 -37 -33 -49 -52 -55 -87 -19 -98 15 -176 92 -216 45 -23 116
-32 132 -17 3 4 51 6 106 4 l100 -3 0 51 0 51 -35 0 -35 0 0 215 0 215 -80 0
-80 0 0 -45z m32 -232 c14 -12 18 -31 18 -78 0 -60 -1 -63 -30 -75 -78 -32
-149 48 -108 123 25 48 84 63 120 30z"/>
<path d="M1950 2045 c0 -41 2 -45 25 -45 23 0 25 -4 25 -42 l0 -43 -75 3 c-68
3 -77 1 -110 -24 -92 -70 -101 -211 -20 -290 41 -40 95 -58 149 -50 22 4 83 6
134 6 l92 -1 0 51 0 50 -35 0 -35 0 0 215 0 215 -75 0 -75 0 0 -45z m28 -231
c18 -13 22 -24 22 -74 0 -56 -2 -60 -30 -75 -41 -21 -64 -19 -99 11 -82 68 20
199 107 138z"/>
<path d="M2210 2045 c0 -41 2 -45 25 -45 l25 0 0 -170 0 -170 -25 0 c-23 0
-25 -3 -25 -50 l0 -50 105 0 105 0 0 50 c0 47 -2 50 -25 50 l-25 0 0 215 0
215 -80 0 -80 0 0 -45z"/>
<path d="M1354 1897 l-41 -22 16 -37 c15 -35 17 -36 41 -23 35 20 115 19 134
-1 33 -33 20 -43 -58 -42 -81 0 -115 -14 -134 -58 -27 -57 -6 -116 50 -145 45
-23 106 -25 136 -3 12 8 22 10 22 5 0 -7 29 -11 75 -11 l75 0 0 50 c0 42 -3
50 -19 50 -16 0 -19 11 -23 85 -6 87 -19 121 -62 157 -32 27 -158 24 -212 -5z
m166 -217 c0 -43 -90 -66 -113 -29 -21 33 -1 49 58 49 48 0 55 -2 55 -20z"/>
<path d="M2540 1899 c-19 -12 -36 -22 -38 -24 -1 -1 3 -16 9 -34 10 -27 15
-31 33 -26 40 14 114 17 135 6 12 -7 21 -21 21 -32 0 -18 -6 -21 -42 -19 -92
5 -109 1 -144 -34 -43 -43 -46 -90 -9 -134 33 -40 75 -55 127 -48 24 3 82 6
131 5 l87 0 0 50 c0 44 -3 51 -20 51 -18 0 -20 7 -20 70 0 83 -21 142 -60 170
-41 29 -161 28 -210 -1z m160 -218 c0 -25 -37 -51 -72 -51 -21 0 -32 7 -40 26
-15 33 0 44 65 44 40 0 47 -3 47 -19z"/>
<path d="M2920 1870 c0 -49 1 -50 30 -50 l30 0 0 -80 0 -80 -30 0 c-29 0 -30
-1 -30 -50 l0 -50 110 0 110 0 0 50 c0 47 -2 50 -25 50 -24 0 -25 2 -25 69 0
62 2 70 25 85 32 21 58 20 78 -2 14 -15 17 -41 17 -135 l0 -117 85 0 85 0 0
50 c0 47 -2 50 -25 50 -24 0 -25 3 -25 61 0 141 -40 199 -136 199 -32 0 -64
-6 -78 -15 -21 -14 -24 -14 -29 0 -5 12 -24 15 -87 15 l-80 0 0 -50z"/>
</g>
</svg>
